<?xml version="1.0" encoding="UTF-8" standalone="no"?>
<!-- Created with Inkscape (http://www.inkscape.org/) -->

<svg
   xmlns:dc="http://purl.org/dc/elements/1.1/"
   xmlns:cc="http://creativecommons.org/ns#"
   xmlns:rdf="http://www.w3.org/1999/02/22-rdf-syntax-ns#"
   xmlns:svg="http://www.w3.org/2000/svg"
   xmlns="http://www.w3.org/2000/svg"
   xmlns:sodipodi="http://sodipodi.sourceforge.net/DTD/sodipodi-0.dtd"
   xmlns:inkscape="http://www.inkscape.org/namespaces/inkscape"
   width="670"
   height="200"
   id="svg2"
   version="1.1"
   inkscape:version="0.48.0 r9654"
   sodipodi:docname="swifft.svg">
  <defs
     id="defs4" />
  <sodipodi:namedview
     id="base"
     pagecolor="#ffffff"
     bordercolor="#666666"
     borderopacity="1.0"
     inkscape:pageopacity="0.0"
     inkscape:pageshadow="2"
     inkscape:zoom="0.49497475"
     inkscape:cx="374.30008"
     inkscape:cy="-62.433163"
     inkscape:document-units="px"
     inkscape:current-layer="layer1"
     showgrid="false"
     inkscape:window-width="1026"
     inkscape:window-height="735"
     inkscape:window-x="231"
     inkscape:window-y="104"
     inkscape:window-maximized="0"
     units="px" />
  <metadata
     id="metadata7">
    <rdf:RDF>
      <cc:Work
         rdf:about="">
        <dc:format>image/svg+xml</dc:format>
        <dc:type
           rdf:resource="http://purl.org/dc/dcmitype/StillImage" />
        <dc:title />
      </cc:Work>
    </rdf:RDF>
  </metadata>
  <g
     inkscape:label="Layer 1"
     inkscape:groupmode="layer"
     id="layer1"
     transform="translate(0,-852.36209)">
    <g
       style="font-size:72px;font-style:italic;font-variant:normal;font-weight:normal;font-stretch:condensed;text-align:start;line-height:125%;letter-spacing:0px;word-spacing:0px;writing-mode:lr-tb;text-anchor:start;fill:#000000;fill-opacity:1;stroke:none;font-family:Red Rocket Condensed Italic;-inkscape-font-specification:'Red Rocket Condensed Italic, Italic Condensed'"
       id="text2986"
       transform="matrix(1.5852501,0,0,1.5852501,-52.464761,791.27162)">
      <path
         d="m 96.62743,89.651112 -45.648,0 -4.248,13.103998 46.944,0 c 1.727949,0 3.67195,-0.312 5.832,-0.936 2.20794,-0.624 4.41594,-1.632 6.624,-3.023998 2.20794,-1.391995 4.31993,-3.191993 6.336,-5.4 2.01593,-2.255989 3.69593,-4.991986 5.04,-8.208 l 3.888,-11.88 -50.472,0 c 0.623973,-1.00797 1.511972,-1.799969 2.664,-2.376 1.19997,-0.575968 2.951968,-0.863968 5.256,-0.864 l 43.632,0 4.248,-13.248 -48.888,0 c -1.872031,4.6e-5 -3.936029,0.504045 -6.192,1.512 -2.208025,1.008043 -4.368022,2.328042 -6.48,3.96 -2.064018,1.584039 -3.936016,3.408037 -5.616,5.472 -1.632013,2.064033 -2.808012,4.176031 -3.528,6.336 l -3.888,12.024 49.968,0 c -0.24006,0.432016 -0.52806,0.864015 -0.864,1.296 -0.28806,0.384015 -0.64806,0.744014 -1.08,1.08 -0.38405,0.336014 -0.86405,0.624013 -1.44,0.864 -0.57605,0.192013 -1.27205,0.288013 -2.088,0.288"
         style="font-stretch:normal;line-height:125%;font-family:Red Rocket Italic;-inkscape-font-specification:'Red Rocket Italic, Italic'"
         id="path2999"
         inkscape:connector-curvature="0"
         sodipodi:nodetypes="cccsccccccccccccccccccccc" />
      <path
         d="m 140.64818,84.899112 c -0.33602,0.960017 -0.48002,1.752016 -0.432,2.376 0.096,0.624015 0.28798,1.128014 0.576,1.512 0.33598,0.336013 0.76798,0.576013 1.296,0.72 0.52798,0.144013 1.07998,0.216013 1.656,0.216 l 8.208,0 10.656,-32.832 14.76,0 -10.656,32.832 12.96,0 10.656,-32.832 14.4,0 -14.904,45.863998 -55.08,0 c -2.01601,0 -3.72001,-0.24 -5.112,-0.72 -1.34401,-0.528 -2.44801,-1.248 -3.312,-2.159998 -0.81601,-0.959996 -1.44001,-2.087995 -1.872,-3.384 -0.38401,-1.343993 -0.64801,-2.807991 -0.792,-4.392 l 11.448,-35.208 14.616,0 -9.072,28.008"
         style="font-stretch:normal;line-height:125%;font-family:Red Rocket Italic;-inkscape-font-specification:'Red Rocket Italic, Italic'"
         id="path3001"
         inkscape:connector-curvature="0"
         sodipodi:nodetypes="cccccccccccccsccccccc" />
      <path
         d="m 229.54493,57.035112 -14.544,0 -14.832,45.719998 14.544,0 14.832,-45.719998"
         style="font-stretch:normal;line-height:125%;font-family:Red Rocket Italic;-inkscape-font-specification:'Red Rocket Italic, Italic'"
         id="path3003"
         inkscape:connector-curvature="0"
         sodipodi:nodetypes="ccccc" />
    </g>
    <text
       xml:space="preserve"
       style="font-size:42.08231735px;font-style:normal;font-variant:normal;font-weight:bold;font-stretch:normal;text-align:start;line-height:125%;letter-spacing:0px;word-spacing:0px;writing-mode:lr-tb;text-anchor:start;fill:#000000;fill-opacity:1;stroke:none;font-family:Ubuntu;-inkscape-font-specification:Ubuntu Bold"
       x="19.666645"
       y="1023.2182"
       id="text3011"
       sodipodi:linespacing="125%"><tspan
         sodipodi:role="line"
         x="19.666645"
         y="1075.821"
         style="font-weight:normal;-inkscape-font-specification:LMSans8;font-family:LMSans8;font-style:normal;font-stretch:normal;font-variant:normal;font-size:42.08231735px;text-anchor:start;text-align:start;writing-mode:lr;line-height:125%"
         id="tspan3817">Swift Wavelet-based Inexact FFT</tspan></text>
    <g
       style="font-size:72px;font-style:italic;font-variant:normal;font-weight:normal;font-stretch:condensed;text-align:start;line-height:125%;letter-spacing:0px;word-spacing:0px;writing-mode:lr-tb;text-anchor:start;fill:#000000;fill-opacity:1;stroke:none;font-family:Red Rocket Condensed Italic;-inkscape-font-specification:'Red Rocket Condensed Italic, Italic Condensed'"
       id="g3801"
       transform="matrix(1.5852501,0,0,1.5852501,-52.464761,791.27162)">
      <path
         d="m 298.10868,72.011112 4.896,-15.192 -65.16,0 -14.904,45.935998 16.848,0 5.04,-15.407998 29.232,0 4.896,-15.12 -29.16,0 0.072,-0.216 48.24,0 m -50.544,1.872 29.16,0 -3.816,11.808 -29.232,0 -5.04,15.407998 -13.536,0 13.896,-42.623998 61.848,0 -3.888,11.88 -48.24,0 -1.152,3.528"
         style="line-height:125%;font-family:Red Rocket Outline Italic;-inkscape-font-specification:'Red Rocket Outline Italic, Italic'"
         id="path3803"
         inkscape:connector-curvature="0"
         sodipodi:nodetypes="cccccccccccccccccccccc" />
      <path
         d="m 365.74931,72.011112 4.896,-15.192 -65.16,0 -14.904,45.935998 16.848,0 5.04,-15.407998 29.232,0 4.896,-15.12 -29.16,0 0.072,-0.216 48.24,0 m -50.544,1.872 29.16,0 -3.816,11.808 -29.232,0 -5.04,15.407998 -13.536,0 13.896,-42.623998 61.848,0 -3.888,11.88 -48.24,0 -1.152,3.528"
         style="line-height:125%;font-family:Red Rocket Outline Italic;-inkscape-font-specification:'Red Rocket Outline Italic, Italic'"
         id="path3805"
         inkscape:connector-curvature="0"
         sodipodi:nodetypes="cccccccccccccccccccccc" />
      <path
         d="m 382.19793,102.75511 16.992,0 9.936,-30.527998 24.12,0 4.968,-15.408 -65.088,0 -4.968,15.408 23.976,0 -9.936,30.527998 m 12.096,-32.183998 -23.976,0 3.96,-12.096 61.776,0 -3.96,12.096 -24.192,0 -9.936,30.527998 -13.608,0 9.936,-30.527998"
         style="line-height:125%;font-family:Red Rocket Outline Italic;-inkscape-font-specification:'Red Rocket Outline Italic, Italic'"
         id="path3807"
         inkscape:connector-curvature="0"
         sodipodi:nodetypes="cccccccccccccccccc" />
    </g>
  </g>
</svg>
